<mxfile host="65bd71144e">
    <diagram id="voXNYClXei8BqZe0r_Rz" name="Page-1">
        <mxGraphModel dx="412" dy="276" grid="1" gridSize="10" guides="1" tooltips="1" connect="1" arrows="1" fold="1" page="1" pageScale="1" pageWidth="827" pageHeight="1169" math="0" shadow="0">
            <root>
                <mxCell id="0"/>
                <mxCell id="1" parent="0"/>
                <mxCell id="2" value="" style="endArrow=classic;html=1;" parent="1" edge="1">
                    <mxGeometry width="50" height="50" relative="1" as="geometry">
                        <mxPoint x="270" y="120" as="sourcePoint"/>
                        <mxPoint x="270" y="140" as="targetPoint"/>
                    </mxGeometry>
                </mxCell>
                <mxCell id="3" value="" style="endArrow=classic;html=1;" parent="1" edge="1">
                    <mxGeometry width="50" height="50" relative="1" as="geometry">
                        <mxPoint x="230" y="200" as="sourcePoint"/>
                        <mxPoint x="230" y="230" as="targetPoint"/>
                    </mxGeometry>
                </mxCell>
                <mxCell id="4" value="" style="triangle;whiteSpace=wrap;html=1;rotation=-90;" parent="1" vertex="1">
                    <mxGeometry x="240" y="130" width="60" height="80" as="geometry"/>
                </mxCell>
                <mxCell id="5" value="" style="endArrow=classic;html=1;entryX=0;entryY=1;entryDx=0;entryDy=0;" parent="1" edge="1">
                    <mxGeometry width="50" height="50" relative="1" as="geometry">
                        <mxPoint x="310" y="200" as="sourcePoint"/>
                        <mxPoint x="310" y="230" as="targetPoint"/>
                    </mxGeometry>
                </mxCell>
                <mxCell id="33" value="" style="ellipse;whiteSpace=wrap;html=1;aspect=fixed;" parent="1" vertex="1">
                    <mxGeometry x="260" y="100" width="20" height="20" as="geometry"/>
                </mxCell>
                <mxCell id="36" value="" style="endArrow=classic;html=1;entryX=1;entryY=0.5;entryDx=0;entryDy=0;" parent="1" target="33" edge="1">
                    <mxGeometry width="50" height="50" relative="1" as="geometry">
                        <mxPoint x="310" y="110" as="sourcePoint"/>
                        <mxPoint x="270" y="290" as="targetPoint"/>
                    </mxGeometry>
                </mxCell>
                <mxCell id="37" value="" style="endArrow=classic;html=1;" parent="1" edge="1">
                    <mxGeometry width="50" height="50" relative="1" as="geometry">
                        <mxPoint x="269.43" y="80" as="sourcePoint"/>
                        <mxPoint x="269.43" y="100" as="targetPoint"/>
                    </mxGeometry>
                </mxCell>
                <mxCell id="39" value="&lt;font&gt;&lt;i&gt;&lt;span style=&quot;font-size: 14px&quot;&gt;W, C&lt;/span&gt;&lt;sub&gt;&lt;font style=&quot;font-size: 9px&quot;&gt;i,W&lt;/font&gt;&lt;/sub&gt;&lt;/i&gt;&lt;/font&gt;" style="text;html=1;strokeColor=none;fillColor=none;align=center;verticalAlign=middle;whiteSpace=wrap;rounded=0;" vertex="1" parent="1">
                    <mxGeometry x="170" y="200" width="60" height="20" as="geometry"/>
                </mxCell>
                <mxCell id="40" value="&lt;font&gt;&lt;i&gt;&lt;span style=&quot;font-size: 14px&quot;&gt;P, C&lt;/span&gt;&lt;sub&gt;&lt;font style=&quot;font-size: 9px&quot;&gt;i,P&lt;/font&gt;&lt;/sub&gt;&lt;/i&gt;&lt;/font&gt;" style="text;html=1;strokeColor=none;fillColor=none;align=center;verticalAlign=middle;whiteSpace=wrap;rounded=0;" vertex="1" parent="1">
                    <mxGeometry x="310" y="200" width="50" height="20" as="geometry"/>
                </mxCell>
                <mxCell id="41" value="&lt;i&gt;&lt;span style=&quot;font-size: 14px&quot;&gt;F&lt;/span&gt;&lt;font style=&quot;font-size: 6px&quot;&gt;n&lt;/font&gt;&lt;span style=&quot;font-size: 14px&quot;&gt;, C&lt;/span&gt;&lt;sub&gt;&lt;font style=&quot;font-size: 9px&quot;&gt;i,F&lt;/font&gt;&lt;font size=&quot;1&quot;&gt;&lt;span style=&quot;font-size: 4px&quot;&gt;n&lt;/span&gt;&lt;/font&gt;&lt;/sub&gt;&lt;/i&gt;" style="text;html=1;strokeColor=none;fillColor=none;align=center;verticalAlign=middle;whiteSpace=wrap;rounded=0;" vertex="1" parent="1">
                    <mxGeometry x="245" y="60" width="50" height="20" as="geometry"/>
                </mxCell>
                <mxCell id="42" value="&lt;font&gt;&lt;i&gt;&lt;span style=&quot;font-size: 14px&quot;&gt;E, C&lt;/span&gt;&lt;sub&gt;&lt;font style=&quot;font-size: 9px&quot;&gt;i,E&lt;/font&gt;&lt;/sub&gt;&lt;/i&gt;&lt;/font&gt;" style="text;html=1;strokeColor=none;fillColor=none;align=center;verticalAlign=middle;whiteSpace=wrap;rounded=0;" vertex="1" parent="1">
                    <mxGeometry x="290" y="90" width="50" height="20" as="geometry"/>
                </mxCell>
            </root>
        </mxGraphModel>
    </diagram>
</mxfile>